<?xml version="1.0" encoding="UTF-8"?>
<svg xmlns="http://www.w3.org/2000/svg" xmlns:xlink="http://www.w3.org/1999/xlink" width="700px" height="500px" viewBox="0 0 700 500" version="1.1">
<defs>
<clipPath id="clip1">
  <path d="M 350 250 L 700 250 L 700 500 Z M 350 250 L 350 500 L 0 500 Z M 350 250 L 0 250 L 0 0 Z M 350 250 L 350 0 L 700 0 Z M 350 250 "/>
</clipPath>
</defs>
<g id="surface1">
<rect x="0" y="0" width="700" height="500" style="fill:rgb(0.392157%,12.941176%,41.176471%);fill-opacity:1;stroke:none;"/>
<path style="fill-rule:nonzero;fill:rgb(0%,0%,0%);fill-opacity:1;stroke-width:6;stroke-linecap:butt;stroke-linejoin:miter;stroke:rgb(100%,100%,100%);stroke-opacity:1;stroke-miterlimit:4;" d="M 0 0 L 50 30 M 50 0 L 0 30 " transform="matrix(14,0,0,16.666667,0,0)"/>
<g clip-path="url(#clip1)" clip-rule="nonzero">
<path style="fill-rule:nonzero;fill:rgb(0%,0%,0%);fill-opacity:1;stroke-width:4;stroke-linecap:butt;stroke-linejoin:miter;stroke:rgb(78.431373%,6.27451%,18.039216%);stroke-opacity:1;stroke-miterlimit:4;" d="M 0 0 L 50 30 M 50 0 L 0 30 " transform="matrix(14,0,0,16.666667,0,0)"/>
</g>
<path style="fill-rule:nonzero;fill:rgb(78.431373%,6.27451%,18.039216%);fill-opacity:1;stroke-width:2;stroke-linecap:butt;stroke-linejoin:miter;stroke:rgb(100%,100%,100%);stroke-opacity:1;stroke-miterlimit:4;" d="M -1 10.999922 L 21 10.999922 L 21 -1.000078 L 29 -1.000078 L 29 10.999922 L 51 10.999922 L 51 19.000078 L 29 19.000078 L 29 31.000078 L 21 31.000078 L 21 19.000078 L -1 19.000078 Z M -1 10.999922 " transform="matrix(14,0,0,16.666667,0,0)"/>
</g>
</svg>
