<?xml version="1.0" encoding="utf-8"?>
<!-- Generator: Adobe Illustrator 25.0.1, SVG Export Plug-In . SVG Version: 6.00 Build 0)  -->
<svg version="1.1" id="Capa_1" xmlns="http://www.w3.org/2000/svg" xmlns:xlink="http://www.w3.org/1999/xlink" x="0px" y="0px"
	 viewBox="0 0 2999.4 176.8" style="enable-background:new 0 0 2999.4 176.8;" xml:space="preserve">
<style type="text/css">
	.st0{fill:#FFFFFF;}
</style>
<g>
	<path class="st0" d="M0,119.6c62.6-12,133.6-23.2,212.7-33.6C556.1,40.9,1012.7,16,1498.4,16c78.9,0,158.2,0.7,235.9,2
		c4.4,0,8.1-3.4,8.1-7.9c0.1-4.4-3.4-8.1-7.9-8.1c-77.8-1.3-157.2-2-236.2-2C1012,0,554.7,24.9,210.7,70.2
		C132.5,80.5,62.2,91.6,0,103.4V119.6z"/>
	<path class="st0" d="M2999.4,176.8v-7.7c-65.6-12.9-140.9-24.9-225.5-36C2430.6,87.9,1974,63.1,1488.3,63.1
		c-62.9,0-126.4,0.4-188.7,1.3c0,0-0.1,0-0.1,0c-4.4,0-7.9-3.5-8-7.9c-0.1-4.4,3.5-8,7.9-8.1c62.3-0.8,125.9-1.3,188.9-1.3
		c486.4,0,943.7,24.9,1287.7,70.2c83.5,11,158.1,22.9,223.4,35.6v-17.3c-329.2-61.7-874-102-1490.4-102C880.8,33.5,327,75.4,0,139.1
		v37.7H2999.4z"/>
</g>
</svg>
