<?xml version="1.0" encoding="utf-8"?>
<!-- Generator: Adobe Illustrator 25.0.1, SVG Export Plug-In . SVG Version: 6.00 Build 0)  -->
<svg version="1.1" id="Capa_1" xmlns="http://www.w3.org/2000/svg" xmlns:xlink="http://www.w3.org/1999/xlink" x="0px" y="0px"
	 viewBox="0 0 3000 72.9" style="enable-background:new 0 0 3000 72.9;" xml:space="preserve">
<style type="text/css">
	.st0{fill:rgb(5, 0, 95);}
	.st1{opacity:0.4;fill:rgb(5, 0, 95);}
</style>
<g>
	<path class="st0" d="M0,0l125,31.3c82.1,20.5,167.9,20.5,250,0l0,0c82.1-20.5,167.9-20.5,250,0l0,0c82.1,20.5,167.9,20.5,250,0l0,0
		c82.1-20.5,167.9-20.5,250,0l0,0c82.1,20.5,167.9,20.5,250,0l0,0c82.1-20.5,167.9-20.5,250,0l0,0c82.1,20.5,167.9,20.5,250,0l0,0
		c82.1-20.5,167.9-20.5,250,0l0,0c82.1,20.5,167.9,20.5,250,0l0,0c82.1-20.5,167.9-20.5,250,0l0,0c82.1,20.5,167.9,20.5,250,0
		L3000,0v72.9H0V0z"/>
	<path class="st1" d="M0,0l125,28.3c82.1,20.5,167.9,15.5,250-5l0,0c82.1-20.5,167.9-20.5,250,0l0,0c82.1,20.5,167.9,20.5,250,0l0,0
		c82.1-20.5,167.9-20.5,250,0l0,0c82.1,20.5,167.9,20.5,250,0l0,0c82.1-20.5,167.9-20.5,250,0l0,0c82.1,20.5,167.9,20.5,250,0l0,0
		c82.1-20.5,167.9-20.5,250,0l0,0c82.1,20.5,167.9,20.5,250,0l0,0c82.1-20.5,167.9-20.5,250,0l0,0c82.1,20.5,167.9,25.5,250,5
		L3000,0v64.9H0V0z"/>
</g>
</svg>
