<?xml version="1.0" encoding="utf-8"?>
<!-- Generator: Adobe Illustrator 25.0.1, SVG Export Plug-In . SVG Version: 6.00 Build 0)  -->
<svg version="1.1" id="Capa_1" xmlns="http://www.w3.org/2000/svg" xmlns:xlink="http://www.w3.org/1999/xlink" x="0px" y="0px"
	 viewBox="0 0 1920 87.7" style="enable-background:new 0 0 1920 87.7;" xml:space="preserve">
<style type="text/css">
	.st0{fill:rgb(5, 0, 95);}
	.st1{opacity:0.6;}
</style>
<path class="st0" d="M1920,87.7H0V0l936.1,78c15.9,1.3,31.8,1.3,47.7,0L1920,0V87.7z"/>
<g class="st1">
	<path class="st0" d="M248.5,11.3l89,6.8l89,6.9l177.9,14.2l88.9,7.2l88.9,7.3l88.9,7.3l44.5,3.7l22.2,1.8
		c7.3,0.6,14.7,0.9,22.1,0.9c7.4,0,14.7-0.3,22.1-0.8l22.2-1.8l44.5-3.7l88.9-7.3c59.3-4.9,118.6-9.8,177.9-14.5l177.9-14.2
		l177.9-13.8c0.2,0,0.4,0.2,0.4,0.4c0,0.2-0.2,0.4-0.4,0.4l-177.8,15.8l-177.8,15.4c-59.3,5.2-118.6,10.1-177.8,15.1l-88.9,7.5
		l-44.5,3.8l-22.2,1.9c-7.5,0.6-15,0.9-22.5,0.9c-7.5,0-15-0.3-22.5-0.9l-22.2-1.9L870.8,66l-88.9-7.5L693,51l-88.9-7.6L426.3,28
		l-88.9-7.9l-88.9-8c-0.2,0-0.4-0.2-0.3-0.4C248.2,11.5,248.3,11.3,248.5,11.3z"/>
</g>
</svg>
